<svg width="20.000000" height="20.000000" viewBox="0 0 20 20" fill="none" xmlns="http://www.w3.org/2000/svg" xmlns:xlink="http://www.w3.org/1999/xlink">
	<desc>
			Created with Pixso.
	</desc>
	<defs>
		<clipPath id="clip13_2901">
			<rect id="heroicons-mini/ellipsis-vertical" width="20.000000" height="20.000000" fill="white" fill-opacity="0"/>
		</clipPath>
	</defs>
	<g clip-path="url(#clip13_2901)">
		<path id="Union" d="M10 3C10.82 3 11.5 3.67 11.5 4.5C11.5 5.32 10.82 6 10 6C9.17 6 8.5 5.32 8.5 4.5C8.5 3.67 9.17 3 10 3ZM10 8.5C10.82 8.5 11.5 9.17 11.5 10C11.5 10.82 10.82 11.5 10 11.5C9.17 11.5 8.5 10.82 8.5 10C8.5 9.17 9.17 8.5 10 8.5ZM10 14C10.82 14 11.5 14.67 11.5 15.5C11.5 16.32 10.82 17 10 17C9.17 17 8.5 16.32 8.5 15.5C8.5 14.67 9.17 14 10 14Z" fill="#0F172A" fill-opacity="1.000000" fill-rule="evenodd"/>
	</g>
</svg>
