<svg width="24.000000" height="24.000000" viewBox="0 0 24 24" fill="none" xmlns="http://www.w3.org/2000/svg" xmlns:xlink="http://www.w3.org/1999/xlink">
	<desc>
			Created with Pixso.
	</desc>
	<defs>
		<clipPath id="clip13_2964">
			<rect id="heroicons-outline/eye" width="24.000000" height="24.000000" fill="white" fill-opacity="0"/>
		</clipPath>
	</defs>
	<g clip-path="url(#clip13_2964)">
		<path id="Vector" d="M12 4.5C16.63 4.5 20.57 7.5 21.96 11.67C22.03 11.88 22.03 12.1 21.96 12.31C20.57 16.49 16.63 19.5 11.99 19.5C7.36 19.5 3.42 16.49 2.03 12.32C1.96 12.11 1.96 11.89 2.03 11.68C3.42 7.5 7.36 4.5 12 4.5ZM11.99 15C10.34 15 8.99 13.65 8.99 12C8.99 10.34 10.34 9 11.99 9C13.65 9 14.99 10.34 14.99 12C14.99 13.65 13.65 15 11.99 15Z" stroke="#637381" stroke-opacity="1.000000" stroke-width="1.500000" stroke-linejoin="round"/>
	</g>
</svg>
