<svg width="24.000000" height="24.000000" viewBox="0 0 24 24" fill="none" xmlns="http://www.w3.org/2000/svg" xmlns:xlink="http://www.w3.org/1999/xlink">
	<desc>
			Created with Pixso.
	</desc>
	<defs>
		<clipPath id="clip13_2988">
			<rect id="heroicons-outline/eye-slash" width="24.000000" height="24.000000" fill="white" fill-opacity="0"/>
		</clipPath>
	</defs>
	<g clip-path="url(#clip13_2988)">
		<path id="Vector" d="M9.87 9.87C10.42 9.33 11.17 9 12 9C13.65 9 15 10.34 15 12C15 12.82 14.66 13.57 14.12 14.12M6.22 6.22C7.88 5.13 9.86 4.5 11.99 4.5C16.75 4.5 20.77 7.66 22.06 11.99C21.35 14.39 19.81 16.42 17.77 17.77M14.86 19.1C13.95 19.36 12.99 19.5 11.99 19.5C7.24 19.5 3.22 16.33 1.93 12C2.35 10.59 3.05 9.31 3.97 8.22M3 3L6.22 6.22L9.87 9.87L14.12 14.12L17.77 17.77L21 21" stroke="#637381" stroke-opacity="1.000000" stroke-width="1.500000" stroke-linejoin="round" stroke-linecap="round"/>
	</g>
</svg>
