<svg width="24.000000" height="24.000000" viewBox="0 0 26 26" fill="none" xmlns="http://www.w3.org/2000/svg" xmlns:xlink="http://www.w3.org/1999/xlink">
	<desc>
			Created with Pixso.
	</desc>
	<defs>
		<clipPath id="clip13_2535">
			<rect id="heroicons-solid/cog-8-tooth" width="24.000000" height="24.000000" fill="white" fill-opacity="0"/>
		</clipPath>
	</defs>
	<g clip-path="url(#clip13_2535)">
		<path id="Subtract" d="M12.07 2.25C11.13 2.25 10.33 2.92 10.17 3.85L10.08 4.42C10.03 4.7 9.82 4.94 9.55 5.04C9.38 5.1 9.22 5.17 9.06 5.24C8.79 5.36 8.48 5.35 8.24 5.18L7.78 4.84C7.01 4.3 5.96 4.38 5.3 5.05L5.05 5.3C4.38 5.96 4.3 7.01 4.84 7.78L5.18 8.24C5.35 8.48 5.36 8.79 5.24 9.06C5.17 9.22 5.1 9.38 5.04 9.55C4.94 9.82 4.7 10.03 4.42 10.08L3.85 10.17C2.92 10.33 2.25 11.13 2.25 12.07L2.25 12.42C2.25 13.36 2.92 14.16 3.85 14.32L4.42 14.41C4.7 14.46 4.94 14.67 5.04 14.94C5.1 15.11 5.17 15.27 5.24 15.43C5.36 15.7 5.35 16.01 5.18 16.25L4.84 16.71C4.3 17.48 4.38 18.53 5.05 19.19L5.3 19.44C5.96 20.11 7.01 20.19 7.78 19.65L8.24 19.31C8.48 19.14 8.79 19.13 9.06 19.25C9.22 19.32 9.38 19.39 9.55 19.45C9.82 19.55 10.03 19.79 10.08 20.07L10.17 20.64C10.33 21.57 11.13 22.25 12.07 22.25L12.42 22.25C13.36 22.25 14.16 21.57 14.32 20.64L14.41 20.07C14.46 19.79 14.67 19.55 14.94 19.45C15.11 19.39 15.27 19.32 15.43 19.25C15.7 19.13 16.01 19.14 16.25 19.31L16.71 19.65C17.48 20.19 18.53 20.11 19.19 19.44L19.44 19.19C20.11 18.53 20.19 17.48 19.65 16.71L19.31 16.25C19.14 16.01 19.13 15.7 19.25 15.43C19.32 15.27 19.39 15.11 19.45 14.94C19.55 14.67 19.79 14.46 20.07 14.41L20.64 14.32C21.57 14.16 22.25 13.36 22.25 12.42L22.25 12.07C22.25 11.13 21.57 10.33 20.64 10.17L20.07 10.08C19.79 10.03 19.55 9.82 19.45 9.55C19.39 9.38 19.32 9.22 19.25 9.06C19.13 8.79 19.14 8.48 19.31 8.24L19.65 7.78C20.19 7.01 20.11 5.96 19.44 5.3L19.19 5.05C18.53 4.38 17.48 4.3 16.71 4.84L16.25 5.18C16.01 5.35 15.7 5.36 15.43 5.24C15.27 5.17 15.11 5.1 14.94 5.04C14.67 4.94 14.46 4.7 14.41 4.42L14.32 3.85C14.16 2.92 13.36 2.25 12.42 2.25L12.07 2.25ZM12.25 16.09C14.37 16.09 16.09 14.37 16.09 12.25C16.09 10.12 14.37 8.4 12.25 8.4C10.12 8.4 8.4 10.12 8.4 12.25C8.4 14.37 10.12 16.09 12.25 16.09Z" fill="currentColor" fill-opacity="1.000000" fill-rule="evenodd"/>
	</g>
</svg>
