<svg width="24.000000" height="24.000000" viewBox="0 0 26 26" fill="none" xmlns="http://www.w3.org/2000/svg" xmlns:xlink="http://www.w3.org/1999/xlink">
	<desc>
			Created with Pixso.
	</desc>
	<defs>
		<clipPath id="clip13_2532">
			<rect id="heroicons-outline/cog-8-tooth" width="24.000000" height="24.000000" fill="white" fill-opacity="0"/>
		</clipPath>
	</defs>
	<g clip-path="url(#clip13_2532)">
		<path id="Vector" d="M11.45 3C10.9 3 10.43 3.39 10.34 3.93L10.19 4.83C10.12 5.25 9.81 5.59 9.41 5.76C9.01 5.92 8.55 5.9 8.2 5.65L7.47 5.12C7.02 4.8 6.41 4.86 6.02 5.24L5.24 6.02C4.85 6.41 4.8 7.02 5.12 7.47L5.65 8.2C5.9 8.55 5.92 9.01 5.76 9.41C5.59 9.81 5.25 10.12 4.83 10.19L3.93 10.34C3.39 10.43 2.99 10.9 2.99 11.45L2.99 12.54C2.99 13.09 3.39 13.56 3.93 13.65L4.83 13.8C5.25 13.87 5.59 14.18 5.76 14.58C5.92 14.98 5.9 15.43 5.65 15.79L5.12 16.52C4.8 16.97 4.85 17.58 5.24 17.97L6.02 18.75C6.41 19.13 7.02 19.19 7.47 18.87L8.2 18.34C8.55 18.09 9.01 18.07 9.41 18.23C9.81 18.4 10.12 18.74 10.19 19.16L10.34 20.06C10.43 20.6 10.9 21 11.45 21L12.54 21C13.09 21 13.56 20.6 13.65 20.06L13.8 19.16C13.87 18.74 14.18 18.4 14.58 18.23C14.98 18.07 15.43 18.09 15.78 18.34L16.52 18.87C16.97 19.19 17.58 19.13 17.97 18.75L18.74 17.97C19.13 17.58 19.18 16.97 18.86 16.52L18.34 15.79C18.09 15.44 18.07 14.98 18.23 14.58C18.4 14.18 18.74 13.87 19.16 13.8L20.05 13.65C20.6 13.56 20.99 13.09 20.99 12.54L20.99 11.45C20.99 10.9 20.6 10.43 20.05 10.34L19.16 10.19C18.74 10.12 18.4 9.81 18.23 9.41C18.07 9.01 18.09 8.56 18.34 8.2L18.87 7.47C19.18 7.02 19.13 6.41 18.75 6.02L17.97 5.24C17.58 4.86 16.97 4.8 16.52 5.12L15.78 5.65C15.43 5.9 14.98 5.92 14.58 5.76C14.18 5.59 13.87 5.25 13.8 4.83L13.65 3.93C13.56 3.39 13.09 3 12.54 3L11.45 3ZM11.99 15C10.34 15 8.99 13.65 8.99 12C8.99 10.34 10.34 9 11.99 9C13.65 9 14.99 10.34 14.99 12C14.99 13.65 13.65 15 11.99 15Z" stroke="currentColor" stroke-opacity="1.000000" stroke-width="1.500000" stroke-linejoin="round"/>
	</g>
</svg>
