<svg width="24.000000" height="24.000000" viewBox="0 0 24 24" fill="none" xmlns="http://www.w3.org/2000/svg" xmlns:xlink="http://www.w3.org/1999/xlink">
	<desc>
			Created with Pixso.
	</desc>
	<defs>
		<clipPath id="clip13_4475">
			<rect id="heroicons-outline/trash" width="24.000000" height="24.000000" fill="white" fill-opacity="0"/>
		</clipPath>
	</defs>
	<g clip-path="url(#clip13_4475)">
		<path id="Vector" d="M14.74 9L14.39 18M9.6 18L9.25 9M19.22 5.79L18.15 19.67C18.06 20.84 17.09 21.75 15.91 21.75L8.08 21.75C6.9 21.75 5.93 20.84 5.84 19.67L4.77 5.79M3.75 5.95C4.08 5.89 4.43 5.84 4.77 5.79C5.91 5.61 7.07 5.48 8.25 5.39C9.48 5.29 10.73 5.25 12 5.25C13.26 5.25 14.51 5.29 15.75 5.39C16.92 5.48 18.08 5.61 19.22 5.79C19.56 5.84 19.91 5.89 20.25 5.95M8.25 5.39L8.25 4.47C8.25 3.29 9.16 2.31 10.33 2.27C10.89 2.25 11.44 2.25 12 2.25C12.55 2.25 13.1 2.25 13.66 2.27C14.83 2.31 15.75 3.29 15.75 4.47L15.75 5.39" stroke="#0F172A" stroke-opacity="1.000000" stroke-width="1.500000" stroke-linejoin="round" stroke-linecap="round"/>
	</g>
</svg>
