<svg width="24.000000" height="24.000000" viewBox="0 0 26 26" fill="none" xmlns="http://www.w3.org/2000/svg" xmlns:xlink="http://www.w3.org/1999/xlink">
	<desc>
			Created with Pixso.
	</desc>
	<defs>
		<clipPath id="clip13_4526">
			<rect id="heroicons-solid/user" width="24.000000" height="24.000000" fill="white" fill-opacity="0"/>
		</clipPath>
	</defs>
	<g clip-path="url(#clip13_4526)">
		<path id="Vector" d="M11.99 1.5C9.51 1.5 7.49 3.51 7.49 6C7.49 8.48 9.51 10.5 11.99 10.5C14.48 10.5 16.49 8.48 16.49 6C16.49 3.51 14.48 1.5 11.99 1.5ZM11.99 12C7.49 12 3.82 15.61 3.75 20.1C3.74 20.4 3.91 20.67 4.18 20.79C6.56 21.89 9.21 22.5 12 22.5C14.78 22.5 17.43 21.89 19.81 20.8C20.08 20.67 20.25 20.4 20.24 20.1C20.17 15.61 16.5 12 11.99 12Z" fill="currentColor" fill-opacity="1.000000" fill-rule="evenodd"/>
	</g>
</svg>
